<?xml version="1.0" standalone="no"?>
<!DOCTYPE svg PUBLIC "-//W3C//DTD SVG 20010904//EN"
 "http://www.w3.org/TR/2001/REC-SVG-20010904/DTD/svg10.dtd">
<svg version="1.0" xmlns="http://www.w3.org/2000/svg"
 width="200.000000pt" height="200.000000pt" viewBox="0 0 200.000000 200.000000"
 preserveAspectRatio="xMidYMid meet">

<g transform="translate(0.000000,200.000000) scale(0.100000,-0.100000)"
fill="#000000" stroke="none">
<path d="M1460 1431 c0 -17 5 -33 10 -36 6 -4 10 8 10 29 0 20 -4 36 -10 36
-5 0 -10 -13 -10 -29z"/>
<path d="M1370 1413 c0 -12 38 -48 45 -41 3 2 -6 15 -20 28 -14 13 -25 19 -25
13z"/>
<path d="M1540 1395 c-13 -14 -19 -25 -13 -25 12 0 48 38 41 45 -2 3 -15 -6
-28 -20z"/>
<path d="M1423 1344 c-15 -24 -15 -29 -2 -53 11 -20 22 -26 49 -26 27 0 38 6
49 26 13 24 13 29 -2 53 -12 18 -26 26 -47 26 -21 0 -35 -8 -47 -26z m82 -13
c9 -31 -5 -52 -33 -49 -33 4 -50 31 -33 52 18 22 58 20 66 -3z"/>
<path d="M1330 1320 c0 -5 14 -10 30 -10 17 0 30 5 30 10 0 6 -13 10 -30 10
-16 0 -30 -4 -30 -10z"/>
<path d="M1550 1320 c0 -5 14 -10 30 -10 17 0 30 5 30 10 0 6 -13 10 -30 10
-16 0 -30 -4 -30 -10z"/>
<path d="M1104 1244 c5 -23 -4 -59 -40 -150 -25 -65 -55 -143 -66 -171 l-19
-53 -110 0 -109 0 0 35 0 35 65 0 c45 0 65 4 65 13 -1 20 -126 291 -136 294
-10 3 -144 -274 -144 -296 0 -7 26 -11 65 -11 l65 0 0 -35 0 -35 -65 0 c-37 0
-65 -4 -65 -10 0 -6 135 -10 385 -10 250 0 385 4 385 10 0 6 -24 10 -54 10
l-53 0 -68 175 c-38 99 -65 184 -62 195 3 11 1 23 -4 26 -5 3 -9 0 -9 -7 0 -8
-5 -8 -16 2 -15 12 -16 10 -10 -17z m-383 -107 c-10 -9 -11 -8 -5 6 3 10 9 15
12 12 3 -3 0 -11 -7 -18z m389 -59 c-4 -55 -14 -104 -30 -145 -23 -58 -27 -63
-55 -63 l-30 0 25 20 c14 11 21 20 15 20 -5 0 -3 5 5 10 12 8 13 12 2 19 -11
6 -7 24 17 87 16 43 35 91 40 107 6 15 12 27 13 27 2 0 1 -37 -2 -82z m79 -66
c28 -74 51 -136 51 -138 0 -2 -11 -4 -24 -4 -20 0 -28 10 -51 68 -23 58 -49
228 -32 212 3 -3 28 -65 56 -138z m-509 23 c-18 -41 -36 -75 -41 -75 -4 0 9
36 29 80 20 43 38 77 40 75 3 -3 -10 -38 -28 -80z"/>
<path d="M1385 1240 c-27 -30 -12 -34 15 -5 13 14 19 25 13 25 -5 0 -18 -9
-28 -20z"/>
<path d="M1540 1235 c13 -14 26 -23 28 -20 7 7 -29 45 -41 45 -6 0 0 -11 13
-25z"/>
<path d="M1467 1233 c-11 -10 -8 -63 3 -63 6 0 10 16 10 35 0 36 -2 40 -13 28z"/>
<path d="M566 801 c-3 -5 -3 -16 0 -25 4 -12 0 -16 -15 -16 -12 0 -21 -4 -21
-10 0 -5 9 -10 20 -10 18 0 20 -7 21 -72 l2 -73 7 68 c4 41 12 73 21 79 11 7
11 11 2 15 -7 2 -13 13 -13 23 0 21 -16 35 -24 21z"/>
<path d="M1140 699 c0 -64 4 -98 10 -94 6 3 10 48 10 101 0 56 -4 94 -10 94
-6 0 -10 -40 -10 -101z"/>
<path d="M1420 768 c0 -25 -3 -29 -12 -20 -16 16 -53 15 -68 -3 -6 -8 -14 -31
-17 -52 -4 -29 0 -44 17 -65 22 -29 53 -37 65 -17 4 6 13 8 21 5 11 -4 14 12
14 89 0 57 -4 95 -10 95 -5 0 -10 -14 -10 -32z m-10 -47 c26 -50 -1 -118 -38
-94 -10 5 -21 22 -26 36 -20 55 37 107 64 58z"/>
<path d="M768 749 c-10 -5 -18 -17 -18 -24 0 -20 16 -19 24 1 9 24 50 14 54
-13 3 -20 -1 -23 -30 -23 -39 0 -58 -15 -58 -46 0 -31 21 -44 67 -41 39 2 41
4 47 38 14 89 -28 142 -86 108z m60 -101 c2 -12 -5 -19 -23 -24 -31 -8 -50 7
-41 31 8 22 60 16 64 -7z"/>
<path d="M1024 752 c-23 -15 -36 -54 -29 -88 11 -61 79 -82 105 -33 13 23 7
24 -24 4 -26 -17 -52 -4 -58 30 -3 18 3 20 49 23 52 3 52 3 42 30 -6 15 -16
30 -22 34 -15 10 -49 10 -63 0z m54 -24 c20 -20 14 -28 -23 -28 -24 0 -35 5
-35 14 0 24 39 33 58 14z"/>
<path d="M1205 740 c-24 -26 -11 -39 16 -15 23 22 52 11 57 -22 2 -16 -2 -19
-31 -15 -22 2 -39 -2 -50 -13 -38 -37 -7 -75 58 -73 l45 2 0 62 c0 46 -4 65
-18 77 -25 23 -55 21 -77 -3z m70 -80 c10 -17 -16 -41 -39 -38 -13 2 -22 12
-24 26 -3 19 1 22 27 22 16 0 33 -5 36 -10z"/>
<path d="M630 675 c0 -43 4 -75 10 -75 6 0 10 15 10 33 0 36 29 101 45 99 6
-1 13 -16 16 -34 4 -26 7 -29 13 -15 12 25 -2 67 -21 67 -9 0 -25 -7 -35 -17
-17 -15 -18 -15 -18 0 0 10 -4 17 -10 17 -6 0 -10 -32 -10 -75z"/>
<path d="M873 737 c3 -7 13 -41 22 -75 10 -35 23 -62 30 -62 12 0 55 107 55
137 0 30 -20 10 -30 -29 -21 -84 -25 -86 -40 -20 -8 42 -17 62 -27 62 -9 0
-13 -6 -10 -13z"/>
</g>
</svg>
